<?xml version="1.0" encoding="utf-8"?>
<!-- Generator: Adobe Illustrator 21.0.2, SVG Export Plug-In . SVG Version: 6.00 Build 0)  -->
<svg version="1.1" id="Layer_1" xmlns="http://www.w3.org/2000/svg" xmlns:xlink="http://www.w3.org/1999/xlink" x="0px" y="0px"
	 viewBox="0 0 500 500" style="enable-background:new 0 0 500 500;" xml:space="preserve">
<style type="text/css">
	.st0{fill:#8C4E4E;}
	.st1{fill:#592A2A;}
	.st2{fill:#1D2C36;}
	.st3{fill:#ECF0F1;}
	.st4{fill:#D6DBDB;}
	.st5{fill:#B7C3C3;}
	.st6{fill:#363838;}
	.st7{fill:#4F4F4F;}
</style>
<g>
	<g>
		<path class="st0" d="M249.8,226.4l122.7-77l75.7,49.4c-22.8-88.4-103-153.7-198.5-153.7c-113.2,0-204.9,91.8-204.9,204.9
			S136.6,455,249.8,455c23.2,0,45.5-3.9,66.3-11L123.4,333.6L249.8,226.4z"/>
		<path class="st1" d="M454.7,250.1c0-17.7-2.3-34.9-6.5-51.2l-75.7-49.4l-122.7,77L123.4,333.6L316.1,444
			C396.7,416.5,454.7,340,454.7,250.1z"/>
	</g>
	<g>
		<g>
			<g>
				<g>
					<path class="st2" d="M377.3,161.3c0-8.8-6.3-15.9-14.2-15.9H129.7c-7.8,0-14.2,7.1-14.2,15.9V297h261.9V161.3z"/>
					<path class="st3" d="M115.5,297v20.7c0,8.8,6.3,15.9,14.2,15.9h233.5c7.8,0,14.2-7.1,14.2-15.9V297H115.5z"/>
				</g>
				<path class="st4" d="M278.9,368.5c-9.6-5.6-9.4-17-9.4-17v-17.9h-23.1h-23.1v17.9c0,0,0.3,11.5-9.4,17h-2.8v3.5h35.3h35.3v-3.5
					H278.9z"/>
				<rect x="211.1" y="368.5" class="st5" width="70.5" height="3.5"/>
			</g>
			<g>
				<polygon class="st6" points="128.6,160.7 128.6,284.3 175.5,284.3 273,160.7 				"/>
				<polygon class="st7" points="364.2,160.7 273,160.7 175.5,284.3 364.2,284.3 				"/>
			</g>
		</g>
	</g>
</g>
</svg>
