<?xml version="1.0" encoding="utf-8"?>
<!-- Generator: Adobe Illustrator 21.0.2, SVG Export Plug-In . SVG Version: 6.00 Build 0)  -->
<svg version="1.1" id="Layer_1" xmlns="http://www.w3.org/2000/svg" xmlns:xlink="http://www.w3.org/1999/xlink" x="0px" y="0px"
	 viewBox="0 0 500 500" style="enable-background:new 0 0 500 500;" xml:space="preserve">
<style type="text/css">
	.st0{fill:#EC9D40;}
	.st1{fill:#BA782B;}
	.st2{fill:#F5E6DA;}
	.st3{fill:#BFB1A5;}
	.st4{fill:#D6C6BA;}
	.st5{fill:#635649;}
	.st6{fill:#EBD9CB;}
	.st7{fill:#E4F5F4;}
	.st8{fill:#ACD6D3;}
	.st9{fill:#9F4A29;}
	.st10{fill:#80381C;}
	.st11{fill:#808544;}
	.st12{fill:#6A6E32;}
	.st13{fill:#E87C3A;}
	.st14{fill:#D66D36;}
	.st15{fill:#C76634;}
	.st16{fill:#B35327;}
	.st17{fill:#E8E5BE;}
	.st18{fill:#E87F3F;}
	.st19{fill:#FCD642;}
	.st20{fill:#FBC428;}
	.st21{fill:#8C4E4E;}
	.st22{fill:#592A2A;}
	.st23{fill:#1D2C36;}
	.st24{fill:#ECF0F1;}
	.st25{fill:#D6DBDB;}
	.st26{fill:#B7C3C3;}
	.st27{fill:#363838;}
	.st28{fill:#4F4F4F;}
</style>
<g>
	<g>
		<path class="st0" d="M183.3,329.7l35.3-27.7L176,216.1l26.5-13L161,152.4l-4.6-24.8l0.3-13.3l5.4-14.1l6.4-8.8l4.4-3.8l9.8-5.8
			l271.7,153.6C446.8,129.1,358.2,45.2,250,45.2C136.8,45.2,45,136.9,45,250.1S136.8,455,250,455c13.4,0,26.5-1.3,39.2-3.8
			l-151.6-84.1L183.3,329.7z"/>
		<path class="st1" d="M454.9,250.1c0-4.9-0.2-9.8-0.5-14.6L182.7,81.8l-9.8,5.8l-4.4,3.8l-6.4,8.8l-5.4,14.1l-0.3,13.3l4.6,24.8
			l41.5,50.7l-26.5,13l42.5,85.9l-35.3,27.7l-45.7,37.5l151.6,84.1C383.6,432.9,454.9,349.8,454.9,250.1z"/>
	</g>
	<g>
		<path class="st2" d="M123.4,346.8c0,24.8,58.6,44.8,130.8,44.8s130.8-20.1,130.8-44.8c0-24.8-58.6-44.9-130.8-44.9
			S123.4,322.1,123.4,346.8z"/>
		<path class="st3" d="M189.2,303.2c1.7,1.4,3.5,2.5,5.4,3.3c-0.8-0.6-1.5-1.2-2.3-1.9C191.4,304,190.3,303.5,189.2,303.2z"/>
		<path class="st4" d="M205.9,318.2c0,0-12.4,12.1,6,23.2c18.4,11.1,74,15.5,94.5-9.7c0,0-1,13.2-29.3,20.5
			c-14.5,3.7-43.3,7.1-64.1-0.6c-13.9-5.1-19.2-12.4-20-17C190.6,321.5,205.9,318.2,205.9,318.2z"/>
		<path class="st4" d="M282.9,194.6c4.3,0.5,8.7,1.1,13.1,1.9C291.8,195.7,287.5,195.1,282.9,194.6z"/>
		<path class="st4" d="M248.8,195.4c0.2,0,0.4,0,0.6,0C249.2,195.4,249,195.4,248.8,195.4z"/>
		<path class="st4" d="M305.1,309.2c-0.4,0-0.8,0.2-1.3,0.2c-0.7,0.5-1.3,0.9-2,1.3C302.9,310.2,304,309.7,305.1,309.2z"/>
		<path class="st4" d="M296.7,196.6c-0.2,0-0.5-0.1-0.8-0.1C296.2,196.5,296.5,196.5,296.7,196.6L296.7,196.6z"/>
		<path class="st4" d="M249.4,195.4c0.2,0,0.4,0,0.6,0C249.8,195.4,249.6,195.4,249.4,195.4z"/>
		<g>
			<path class="st4" d="M277.8,213.7c0.4,0,0.7,0.1,1.1,0.1c-0.3-0.1-0.6-0.2-1-0.2C277.9,213.7,277.9,213.7,277.8,213.7z"/>
			<path class="st2" d="M345.2,224.1c-1-11.6-18.7-22.1-48.5-27.5c-0.3,0-0.5-0.1-0.8-0.1c-4.4-0.7-8.8-1.3-13.1-1.9
				c-71.9-8.7-127.6,9.8-129.3,29.5c-1.9,21,10.1,61.3,35.6,82.5c3.8,3.2,22.8,22.1,57.4,23.1c28,0.8,45.7-8.2,63.9-24
				C335.7,283.9,347.1,245.1,345.2,224.1z M330,229.6c0,0.1,0,0.2,0,0.3c-0.4,0.3-0.8,0.7-1.2,1c-4,4.5-23.8,11.8-59.6,13.9
				c-11.3,0.6-24.2,0.8-38.8,0.1c-2.5-0.2-4.9-0.4-7.2-0.5c-3.8-0.3-7.3-0.7-10.7-1c-9.8-1-17.9-2.2-22.3-3.1c-1-0.2-2-0.5-3.1-0.8
				c-4.1-1.2-8.8-3.3-13-5.9c-0.2-0.1-0.3-0.2-0.4-0.3c-0.3-0.2-0.6-0.4-1-0.6c-0.8-0.9-2.1-3.2,0.8-6.3c0.8-0.9,2-1.8,3.6-2.8
				c0.9-0.5,1.8-1.1,3-1.6c2.1-1,5.4-2.4,10-3.9c7.1-2.3,17.1-4.7,29.8-6c0,0.1,0.1,0.3,0.1,0.4c0.2,0.5,0.4,1,0.6,1.6
				c0.3,0.7,0.5,1.5,0.8,2.2c-0.3-0.7-0.5-1.5-0.8-2.2c-0.2-0.5-0.4-1.1-0.6-1.6c0.7-0.2,1.4-0.5,2.1-0.7
				c11.9-1.1,26.8-1.1,44.9,0.7c0,0,0,0,0,0c8,0.4,17.9,1.5,27.4,3.2C313.9,219,331.7,224.5,330,229.6z"/>
			<path class="st4" d="M202.5,220.7c0.4-0.2,0.9-0.3,1.4-0.5c0,0,0.1,0,0.1,0c0,0-0.1,0-0.1,0C203.4,220.3,202.9,220.5,202.5,220.7
				z"/>
			<path class="st4" d="M221.4,216.3c0.2-0.1,0.4-0.1,0.6-0.2C221.8,216.2,221.6,216.2,221.4,216.3c-0.6,0.1-1.1,0.2-1.7,0.4
				C220.2,216.5,220.8,216.4,221.4,216.3z"/>
			<path class="st4" d="M280.3,214.2c0.6,0,0.9,0,0.9,0c-0.8-0.1-1.5-0.2-2.3-0.3C279.3,213.9,279.8,214,280.3,214.2z"/>
			<path class="st4" d="M217.4,217.1c0.6-0.1,1.1-0.2,1.7-0.3c0.2,0,0.4-0.1,0.6-0.1c-0.2,0-0.4,0.1-0.5,0.1
				C218.6,216.8,218,217,217.4,217.1z"/>
		</g>
		<path class="st5" d="M312.6,219.6L312.6,219.6c0,0-53.6-15.9-106.1-5.6c-8.8,1.6-15.6,3.7-20.5,5.4c-0.1,0-0.1,0-0.2,0.1h0
			c-2.5,0.9-4.4,1.8-5.8,2.4c-1.1,0.6-2.1,1.1-3,1.6c-1.6,1-2.8,1.9-3.6,2.8c-2.9,3.1-1.6,5.4-0.8,6.3c0.3,0.2,0.6,0.4,1,0.6
			c0.1,0.1,0.3,0.2,0.4,0.3c4.2,2.6,8.9,4.6,13,5.9c1.1,0.3,2.1,0.6,3.1,0.8c4.4,0.9,12.5,2.1,22.3,3.1c3.4,0.4,6.9,0.7,10.7,1
			c2.4,0.2,4.8,0.4,7.2,0.5c14.6,0.7,27.4,0.5,38.8-0.1c35.7-2.1,55.6-9.4,59.6-13.9c0.4-0.3,0.8-0.6,1.2-1c0-0.1,0-0.2,0-0.3
			C331.1,226.2,323.5,222.6,312.6,219.6z"/>
		<path class="st6" d="M237,232c0,0,22.1-11.7,30.5-36.3c8.4-24.6-0.9-39-24.8-35c-23.9,3.9-60.9,15.6-78.8-4.6
			c-18-20.3-13.4-64,18.9-74.2c0,0-30.2,15-23.4,48.5c6.7,33.5,38.1,26.6,54,21c15.8-5.6,48.2-19.3,64.2,5.5
			C293.4,181.7,269.3,220.2,237,232z"/>
		<path class="st6" d="M278.6,204.6c0,0,27.3-33.1-1.7-58.3C276.9,146.2,320.3,168.5,278.6,204.6z"/>
	</g>
</g>
<g>
	<g>
		<path class="st7" d="M807.7,134l107.2,61.7C889.2,111.9,811.2,51.1,719,51.1c-113.2,0-205,91.8-205,205c0,113.2,91.8,205,205,205
			c21.8,0,42.8-3.4,62.5-9.7l-170.2-85L807.7,134z"/>
		<path class="st8" d="M924,256c0-21-3.2-41.3-9.1-60.4L807.7,134L611.3,366.3l170.2,85C864.1,424.9,924,347.4,924,256z"/>
	</g>
	<g>
		<path class="st9" d="M845.6,348.6c0,12.8-10.3,23.1-23.1,23.1H648.6c-12.8,0-23.1-10.3-23.1-23.1V174.6
			c0-12.8,10.3-23.1,23.1-23.1h173.9c12.8,0,23.1,10.3,23.1,23.1V348.6z"/>
		<path class="st10" d="M836,348.6c0,12.8-10.3,23.1-23.1,23.1H639c-12.7,0-23.1-10.3-23.1-23.1V174.6c0-12.8,10.3-23.1,23.1-23.1
			h173.9c12.8,0,23.1,10.3,23.1,23.1V348.6z"/>
		<path class="st11" d="M838.8,326.4c1.2,12.7-8.1,24-20.8,25.2l-173.1,16.5c-12.7,1.2-24-8.1-25.2-20.8l-16.5-173.1
			c-1.2-12.7,8.1-24,20.8-25.2l173.1-16.5c12.7-1.2,24,8.1,25.2,20.8L838.8,326.4z"/>
		<path class="st12" d="M834.2,324.5c1.2,12.2-7.8,23-20,24.2l-166.4,15.9c-12.2,1.2-23-7.8-24.2-20l-15.9-166.4
			c-1.2-12.2,7.8-23.1,20-24.2l166.4-15.9c12.2-1.2,23.1,7.8,24.2,20L834.2,324.5z"/>
		<path class="st13" d="M823.1,348.6c0,12.8-10.3,23.1-23.1,23.1H626.1c-12.8,0-23.1-10.3-23.1-23.1V174.6
			c0-12.8,10.3-23.1,23.1-23.1H800c12.7,0,23.1,10.3,23.1,23.1V348.6z"/>
		<path class="st14" d="M785.7,356.3H800c4.2,0,7.7-3.5,7.7-7.7V174.6c0-4.2-3.4-7.7-7.7-7.7H626.1c-4.3,0-7.7,3.4-7.7,7.7v26.6
			C654.3,271.1,714.2,325.2,785.7,356.3z"/>
		<path class="st15" d="M618.4,201.2v147.4c0,4.2,3.5,7.7,7.7,7.7h159.5C714.2,325.2,654.3,271.1,618.4,201.2z"/>
		<path class="st16" d="M846.7,239.1h-1.1h-33.5h-30c-12.4,0-22.5,10.1-22.5,22.5c0,12.4,10,22.5,22.5,22.5h30h33.5h1.1
			c2.9,0,5.2-2.3,5.2-5.2v-34.6C851.9,241.4,849.5,239.1,846.7,239.1z"/>
		<path class="st17" d="M770.6,261.6c0,6.2,5.1,11.3,11.3,11.3c6.2,0,11.3-5.1,11.3-11.3c0-6.2-5.1-11.3-11.3-11.3
			C775.7,250.3,770.6,255.4,770.6,261.6z"/>
		<path class="st18" d="M823.1,274.6c0,3,1.5,5.5,3.3,5.5h15.8c1.8,0,3.3-2.5,3.3-5.5v-26.1c0-3-1.5-5.5-3.3-5.5h-15.8
			c-1.8,0-3.3,2.5-3.3,5.5V274.6z"/>
		<g>
			<path class="st19" d="M719.2,324.4c0,3.3-2.7,6-6,6l0,0c-3.3,0-6-2.7-6-6V198.8c0-3.3,2.7-6,6-6l0,0c3.3,0,6,2.7,6,6V324.4z"/>
			<path class="st20" d="M685.2,300.6c1.2-1.2,2.9-1.8,4.8-1.6c1.5,0.2,2.7,0.9,3.6,1.9v-0.1c3.3,4.1,8.1,7,13.7,7.7
				c11.4,1.4,21.8-6.7,23.2-18.1c1.4-11.4-6.7-21.7-18-23.2v0c0,0,0,0,0,0c-1-0.1-2.1-0.3-3.1-0.5c-16.2-3.6-27.2-19-25.2-35.7
				c2.2-17.8,18.5-30.4,36.2-28.2c8.6,1.1,16,5.4,21,11.6c0,0,0,0,0,0c1,1.2,1.5,2.8,1.3,4.4c-0.4,3.2-3.3,5.5-6.5,5.1
				c-1.4-0.2-2.6-0.8-3.5-1.7c-0.2-0.2-0.4-0.5-0.6-0.7c-3.2-3.8-7.8-6.4-13.2-7.1c-11.4-1.4-21.8,6.7-23.2,18.1
				c-1.4,11.4,6.7,21.8,18.1,23.2c0.2,0,0.5,0,0.7,0.1v0c0.8,0.1,1.6,0.3,2.3,0.4c16.2,3.6,27.3,18.9,25.2,35.7
				c-2.2,17.8-18.5,30.4-36.2,28.2c-8.5-1.1-15.8-5.3-20.9-11.4c-0.2-0.2-0.3-0.4-0.5-0.6c-0.8-1.2-1.2-2.6-1-4.1
				c0.1-0.6,0.3-1.2,0.5-1.8C684.3,301.7,684.7,301.1,685.2,300.6z"/>
		</g>
	</g>
</g>
<g>
	<g>
		<path class="st21" d="M-219.2,232.4l122.7-77l75.7,49.4c-22.8-88.4-103-153.7-198.5-153.7c-113.2,0-204.9,91.8-204.9,204.9
			S-332.4,461-219.2,461c23.2,0,45.5-3.9,66.3-11l-192.7-110.5L-219.2,232.4z"/>
		<path class="st22" d="M-14.3,256.1c0-17.7-2.3-34.9-6.5-51.2l-75.7-49.4l-122.7,77l-126.3,107.1L-152.9,450
			C-72.3,422.5-14.3,346-14.3,256.1z"/>
	</g>
	<g>
		<g>
			<g>
				<g>
					<path class="st23" d="M-91.7,167.3c0-8.8-6.3-15.9-14.2-15.9h-233.5c-7.8,0-14.2,7.1-14.2,15.9V303h261.9V167.3z"/>
					<path class="st24" d="M-353.5,303v20.7c0,8.8,6.3,15.9,14.2,15.9h233.5c7.8,0,14.2-7.1,14.2-15.9V303H-353.5z"/>
				</g>
				<path class="st25" d="M-190.1,374.5c-9.6-5.6-9.4-17-9.4-17v-17.9h-23.1h-23.1v17.9c0,0,0.3,11.5-9.4,17h-2.8v3.5h35.3h35.3
					v-3.5H-190.1z"/>
				<rect x="-257.9" y="374.5" class="st26" width="70.5" height="3.5"/>
			</g>
			<g>
				<polygon class="st27" points="-340.4,166.7 -340.4,290.3 -293.5,290.3 -196,166.7 				"/>
				<polygon class="st28" points="-104.8,166.7 -196,166.7 -293.5,290.3 -104.8,290.3 				"/>
			</g>
		</g>
	</g>
</g>
</svg>
